<svg width="30" height="24" viewBox="0 0 30 24" fill="none" xmlns="http://www.w3.org/2000/svg">
<path d="M1.14397 19.5H28.8562C29.0745 19.5 29.2769 19.3877 29.3919 19.2033C29.5069 19.019 29.5173 18.7889 29.4196 18.5954L27.5001 14.9773V3.25002C27.5001 1.87125 26.4667 0.75 25.0772 0.75H4.92286C3.53342 0.75 2.5 1.87119 2.5 3.25002V14.9773L0.580531 18.5955C0.482738 18.789 0.493168 19.0191 0.608188 19.2034C0.723266 19.3877 0.92559 19.5 1.14397 19.5ZM5.00002 3.25002H25V14.5H5.00002V3.25002Z" fill="white" fill-opacity="0.65"/>
<path d="M29.8851 21.0149C29.767 20.8489 29.5751 20.75 29.3703 20.75H18.6707C18.5034 20.75 18.3435 20.8159 18.2254 20.9331L17.9646 21.1919C17.8471 21.3085 17.6847 21.375 17.5193 21.375H12.4807C12.3152 21.375 12.1528 21.3085 12.0353 21.1919L11.7745 20.9331C11.6565 20.8159 11.4965 20.75 11.3292 20.75H0.629721C0.424877 20.75 0.232983 20.8489 0.114916 21.0149C-0.00256439 21.1803 -0.0320956 21.3927 0.0361661 21.5844C0.392943 22.5805 1.34445 23.25 2.40359 23.25H27.5965C28.6556 23.25 29.6071 22.5805 29.9639 21.5844C30.0321 21.3927 30.0026 21.1803 29.8851 21.0149Z" fill="white" fill-opacity="0.65"/>
</svg>
