<svg width="92" height="32" viewBox="0 0 92 32" fill="none" xmlns="http://www.w3.org/2000/svg">
<g filter="url(#filter0_d)">
<path d="M39.52 8.4C39.8133 8.4 39.96 8.52667 39.96 8.78V8.86C39.96 9.04667 39.7867 9.30667 39.44 9.64C39.0933 9.96 38.8667 10.28 38.76 10.6L36.28 17.48C36.16 17.8267 35.9267 18 35.58 18H34.78C34.3933 18 34.1533 17.8267 34.06 17.48L32.42 12.14L30.76 17.48C30.6667 17.8267 30.4333 18 30.06 18H29.5C29.18 18 28.94 17.8267 28.78 17.48L25.94 10.6C25.82 10.3067 25.6133 9.99333 25.32 9.66C25.04 9.32667 24.9 9.06 24.9 8.86V8.78C24.9 8.52667 25.0533 8.4 25.36 8.4H29.38C29.6733 8.4 29.82 8.53333 29.82 8.8V8.88C29.82 9.01333 29.74 9.16 29.58 9.32C29.42 9.46667 29.2867 9.64667 29.18 9.86C29.0867 10.06 29.0933 10.32 29.2 10.64L30.5 14.6L32.16 8.92C32.2533 8.62667 32.42 8.48 32.66 8.48L33.88 8.46C34.1467 8.46 34.32 8.59333 34.4 8.86L36.02 14.56L37.26 10.98C37.38 10.66 37.4 10.3867 37.32 10.16C37.24 9.92 37.1333 9.74 37 9.62C36.8667 9.5 36.7333 9.37333 36.6 9.24C36.4667 9.10667 36.4 8.98667 36.4 8.88V8.8C36.4 8.53333 36.5533 8.4 36.86 8.4H39.52ZM42.9261 7.22C42.2461 7.22 41.6928 7.03333 41.2661 6.66C40.8394 6.27333 40.6261 5.79333 40.6261 5.22C40.6261 4.64667 40.8394 4.17333 41.2661 3.8C41.6928 3.41333 42.2461 3.22 42.9261 3.22C43.5928 3.22 44.1394 3.41333 44.5661 3.8C44.9928 4.17333 45.2061 4.64667 45.2061 5.22C45.2061 5.79333 44.9928 6.27333 44.5661 6.66C44.1394 7.03333 43.5928 7.22 42.9261 7.22ZM40.7861 18C40.4661 18 40.3061 17.8733 40.3061 17.62V17.54C40.3061 17.38 40.4394 17.1333 40.7061 16.8C40.9728 16.4667 41.1061 16.1333 41.1061 15.8V12C41.1061 11.6533 40.9728 11.32 40.7061 11C40.4394 10.6667 40.3061 10.44 40.3061 10.32V10.24C40.3061 10.08 40.4594 9.92667 40.7661 9.78L43.7861 8.3C44.0661 8.18 44.2861 8.16667 44.4461 8.26C44.6061 8.35333 44.6861 8.50667 44.6861 8.72V15.8C44.6861 16.1333 44.8328 16.4667 45.1261 16.8C45.4328 17.1333 45.5861 17.38 45.5861 17.54V17.62C45.5861 17.8733 45.4194 18 45.0861 18H40.7861ZM55.5975 14.8C55.9975 14.8 56.1375 15.0067 56.0175 15.42L55.4175 17.52C55.3242 17.84 55.1575 18 54.9175 18H46.8975C46.7642 18 46.6442 17.9533 46.5375 17.86C46.4308 17.7667 46.3775 17.6533 46.3775 17.52V17.26C46.3775 17.1133 46.5242 16.84 46.8175 16.44L51.5175 9.28H49.8175C49.5242 9.28 49.2375 9.39333 48.9575 9.62C48.6775 9.83333 48.4508 10.0733 48.2775 10.34C48.1042 10.6067 47.8975 10.8533 47.6575 11.08C47.4175 11.2933 47.1775 11.4 46.9375 11.4H46.8175C46.6042 11.4 46.4575 11.3267 46.3775 11.18C46.2975 11.0333 46.2908 10.8533 46.3575 10.64L46.8975 9.02C46.9775 8.78 47.0575 8.62 47.1375 8.54C47.2308 8.44667 47.3842 8.4 47.5975 8.4H55.0375C55.1708 8.4 55.2775 8.44 55.3575 8.52C55.4508 8.58667 55.4975 8.67333 55.4975 8.78V8.98C55.4975 9.11333 55.2908 9.50667 54.8775 10.16L50.3175 17.12H52.2375C52.5842 17.12 52.9175 17 53.2375 16.76C53.5708 16.52 53.8375 16.2533 54.0375 15.96C54.2508 15.6667 54.4842 15.4 54.7375 15.16C54.9908 14.92 55.2308 14.8 55.4575 14.8H55.5975ZM65.8514 14.8C66.2514 14.8 66.3914 15.0067 66.2714 15.42L65.6714 17.52C65.5781 17.84 65.4114 18 65.1714 18H57.1514C57.0181 18 56.8981 17.9533 56.7914 17.86C56.6847 17.7667 56.6314 17.6533 56.6314 17.52V17.26C56.6314 17.1133 56.7781 16.84 57.0714 16.44L61.7714 9.28H60.0714C59.7781 9.28 59.4914 9.39333 59.2114 9.62C58.9314 9.83333 58.7047 10.0733 58.5314 10.34C58.3581 10.6067 58.1514 10.8533 57.9114 11.08C57.6714 11.2933 57.4314 11.4 57.1914 11.4H57.0714C56.8581 11.4 56.7114 11.3267 56.6314 11.18C56.5514 11.0333 56.5447 10.8533 56.6114 10.64L57.1514 9.02C57.2314 8.78 57.3114 8.62 57.3914 8.54C57.4847 8.44667 57.6381 8.4 57.8514 8.4H65.2914C65.4247 8.4 65.5314 8.44 65.6114 8.52C65.7047 8.58667 65.7514 8.67333 65.7514 8.78V8.98C65.7514 9.11333 65.5447 9.50667 65.1314 10.16L60.5714 17.12H62.4914C62.8381 17.12 63.1714 17 63.4914 16.76C63.8247 16.52 64.0914 16.2533 64.2914 15.96C64.5047 15.6667 64.7381 15.4 64.9914 15.16C65.2447 14.92 65.4847 14.8 65.7114 14.8H65.8514ZM75.0672 14.84C75.2139 14.6933 75.3739 14.6533 75.5472 14.72C75.7339 14.7733 75.8205 14.9067 75.8072 15.12C75.7805 15.7867 75.3939 16.4667 74.6472 17.16C73.9005 17.8533 72.9339 18.2 71.7472 18.2C70.2939 18.2 69.1072 17.7333 68.1872 16.8C67.2672 15.8667 66.8072 14.6467 66.8072 13.14C66.8072 11.7 67.2872 10.52 68.2472 9.6C69.2205 8.66667 70.3805 8.2 71.7272 8.2C72.9405 8.2 73.8805 8.48 74.5472 9.04C75.2139 9.6 75.5472 10.2333 75.5472 10.94C75.5472 11.5 75.2872 11.9133 74.7672 12.18L70.7872 14.42C71.3339 15.2867 72.0939 15.72 73.0672 15.72C73.4805 15.72 73.8672 15.64 74.2272 15.48C74.6005 15.3067 74.8805 15.0933 75.0672 14.84ZM71.3672 9.18C70.9672 9.18 70.6405 9.38 70.3872 9.78C70.1472 10.18 70.0272 10.68 70.0272 11.28C70.0272 12.08 70.1272 12.78 70.3272 13.38L72.1872 12.26C72.5339 12.02 72.7072 11.68 72.7072 11.24C72.7072 10.8 72.5939 10.3467 72.3672 9.88C72.1539 9.41333 71.8205 9.18 71.3672 9.18ZM86.7923 15.82C86.7923 16.1533 86.9257 16.4867 87.1923 16.82C87.459 17.14 87.5923 17.38 87.5923 17.54V17.62C87.5923 17.8733 87.439 18 87.1323 18H84.2723C83.9257 18 83.7523 17.8333 83.7523 17.5V17.32C83.1257 17.9067 82.3123 18.2 81.3123 18.2C80.019 18.2 78.9057 17.76 77.9723 16.88C77.0523 15.9867 76.5923 14.76 76.5923 13.2C76.5923 11.7467 77.059 10.5533 77.9923 9.62C78.9257 8.67333 80.039 8.2 81.3323 8.2C82.1457 8.2 82.8323 8.38667 83.3923 8.76V6.1C83.3923 5.83333 83.3057 5.60667 83.1323 5.42C82.959 5.22 82.779 5.05333 82.5923 4.92C82.419 4.77333 82.3323 4.62 82.3323 4.46V4.4C82.3323 4.14667 82.4857 3.97333 82.7923 3.88L85.9123 2.94C86.499 2.75333 86.7923 2.91333 86.7923 3.42V15.82ZM82.1123 17.22C82.4723 17.2333 82.7723 17.0867 83.0123 16.78C83.2657 16.4733 83.3923 16.06 83.3923 15.54V11.68C83.3923 11.04 83.2057 10.4667 82.8323 9.96C82.4723 9.44 82.059 9.18 81.5923 9.18C80.6057 9.18 80.079 10 80.0123 11.64C79.9857 12.2667 80.039 12.9933 80.1723 13.82C80.319 14.6467 80.559 15.42 80.8923 16.14C81.239 16.8467 81.6457 17.2067 82.1123 17.22Z" fill="#EE8572"/>
</g>
<g filter="url(#filter1_d)">
<rect x="8.22217" y="19" width="5.97112" height="20.8989" rx="2.98556" transform="rotate(-135 8.22217 19)" fill="#EE8572"/>
</g>
<g filter="url(#filter2_d)">
<rect x="4" y="8.70053" width="5.97112" height="20.8989" rx="2.98556" transform="rotate(-45 4 8.70053)" fill="#EE8572"/>
</g>
<defs>
<filter id="filter0_d" x="20.9" y="2.86462" width="70.6923" height="23.3354" filterUnits="userSpaceOnUse" color-interpolation-filters="sRGB">
<feFlood flood-opacity="0" result="BackgroundImageFix"/>
<feColorMatrix in="SourceAlpha" type="matrix" values="0 0 0 0 0 0 0 0 0 0 0 0 0 0 0 0 0 0 127 0"/>
<feOffset dy="4"/>
<feGaussianBlur stdDeviation="2"/>
<feColorMatrix type="matrix" values="0 0 0 0 0 0 0 0 0 0 0 0 0 0 0 0 0 0 0.25 0"/>
<feBlend mode="normal" in2="BackgroundImageFix" result="effect1_dropShadow"/>
<feBlend mode="normal" in="SourceGraphic" in2="effect1_dropShadow" result="shape"/>
</filter>
<filter id="filter1_d" x="0" y="0" width="27" height="27" filterUnits="userSpaceOnUse" color-interpolation-filters="sRGB">
<feFlood flood-opacity="0" result="BackgroundImageFix"/>
<feColorMatrix in="SourceAlpha" type="matrix" values="0 0 0 0 0 0 0 0 0 0 0 0 0 0 0 0 0 0 127 0"/>
<feOffset dy="4"/>
<feGaussianBlur stdDeviation="2"/>
<feColorMatrix type="matrix" values="0 0 0 0 0 0 0 0 0 0 0 0 0 0 0 0 0 0 0.25 0"/>
<feBlend mode="normal" in2="BackgroundImageFix" result="effect1_dropShadow"/>
<feBlend mode="normal" in="SourceGraphic" in2="effect1_dropShadow" result="shape"/>
</filter>
<filter id="filter2_d" x="0" y="4.4783" width="27" height="27" filterUnits="userSpaceOnUse" color-interpolation-filters="sRGB">
<feFlood flood-opacity="0" result="BackgroundImageFix"/>
<feColorMatrix in="SourceAlpha" type="matrix" values="0 0 0 0 0 0 0 0 0 0 0 0 0 0 0 0 0 0 127 0"/>
<feOffset dy="4"/>
<feGaussianBlur stdDeviation="2"/>
<feColorMatrix type="matrix" values="0 0 0 0 0 0 0 0 0 0 0 0 0 0 0 0 0 0 0.25 0"/>
<feBlend mode="normal" in2="BackgroundImageFix" result="effect1_dropShadow"/>
<feBlend mode="normal" in="SourceGraphic" in2="effect1_dropShadow" result="shape"/>
</filter>
</defs>
</svg>
