<svg width="30" height="30" viewBox="0 0 30 30" fill="none" xmlns="http://www.w3.org/2000/svg">
<g clip-path="url(#clip0)">
<path d="M20.6414 12.2974C24.0372 12.2974 26.79 9.54451 26.79 6.14869C26.79 2.75286 24.0372 0 20.6414 0C17.2455 0 14.4927 2.75286 14.4927 6.14869C14.4927 9.54451 17.2455 12.2974 20.6414 12.2974Z" fill="white" fill-opacity="0.65"/>
<path d="M9.94449 22.5657C9.12823 22.5657 8.36065 22.8836 7.78345 23.4609L7.02935 24.215C6.60795 24.6364 5.92223 24.6364 5.50059 24.215C5.07918 23.7935 5.07918 23.1078 5.50059 22.6862L6.33396 21.8528C7.05835 22.1113 7.89015 21.9998 8.53192 21.4991L18.2492 13.9162C16.9969 13.5322 15.8495 12.8457 14.8971 11.8931C13.9445 10.9406 13.2579 9.79309 12.8739 8.54065L5.29082 18.2581C4.79008 18.8998 4.67864 19.7317 4.93715 20.4561L4.10372 21.2896C2.91204 22.4812 2.91204 24.4201 4.10372 25.6119C5.29569 26.8036 7.23449 26.8035 8.42604 25.6119L9.18014 24.8578C9.60161 24.4364 10.2873 24.4364 10.7088 24.8578C11.1303 25.2793 11.1303 25.965 10.7088 26.3865L8.49202 28.6033L9.88883 30.0001L12.1057 27.7833C13.2973 26.5917 13.2973 24.6527 12.1057 23.461C11.5284 22.8837 10.7609 22.5657 9.94449 22.5657Z" fill="white" fill-opacity="0.65"/>
</g>
<defs>
<clipPath id="clip0">
<rect width="30" height="30" fill="white"/>
</clipPath>
</defs>
</svg>
