<svg width="30" height="30" viewBox="0 0 30 30" fill="none" xmlns="http://www.w3.org/2000/svg">
<g clip-path="url(#clip0)">
<path d="M3.32651 21.8572C3.81305 21.8572 4.20747 21.4628 4.20747 20.9762C4.20747 20.4897 3.81305 20.0953 3.32651 20.0953C2.83997 20.0953 2.44556 20.4897 2.44556 20.9762C2.44556 21.4628 2.83997 21.8572 3.32651 21.8572Z" fill="white" fill-opacity="0.65"/>
<path d="M7.40488 11.6389C7.89142 11.6389 8.28584 11.2445 8.28584 10.758C8.28584 10.2714 7.89142 9.87703 7.40488 9.87703C6.91834 9.87703 6.52393 10.2714 6.52393 10.758C6.52393 11.2445 6.91834 11.6389 7.40488 11.6389Z" fill="white" fill-opacity="0.65"/>
<path d="M19.4828 9.51698C19.9693 9.51698 20.3637 9.12256 20.3637 8.63602C20.3637 8.14948 19.9693 7.75507 19.4828 7.75507C18.9962 7.75507 18.6018 8.14948 18.6018 8.63602C18.6018 9.12256 18.9962 9.51698 19.4828 9.51698Z" fill="white" fill-opacity="0.65"/>
<path d="M26.9356 21.8572C27.4222 21.8572 27.8166 21.4628 27.8166 20.9762C27.8166 20.4897 27.4222 20.0953 26.9356 20.0953C26.4491 20.0953 26.0547 20.4897 26.0547 20.9762C26.0547 21.4628 26.4491 21.8572 26.9356 21.8572Z" fill="white" fill-opacity="0.65"/>
<path d="M10.8941 5.05876C11.3807 5.05876 11.7751 4.66434 11.7751 4.1778C11.7751 3.69126 11.3807 3.29684 10.8941 3.29684C10.4076 3.29684 10.0132 3.69126 10.0132 4.1778C10.0132 4.66434 10.4076 5.05876 10.8941 5.05876Z" fill="white" fill-opacity="0.65"/>
<path d="M26.0093 14.8912C25.5729 14.8278 18.9509 13.8656 18.5436 13.8064L15.2048 7.04132C14.8988 6.42082 14.0107 6.42029 13.7042 7.04132L10.3654 13.8064L2.89977 14.8912C2.58459 14.9369 2.3228 15.1578 2.2243 15.4607C2.12592 15.7636 2.20801 16.0961 2.43606 16.3184L7.83822 21.5842L6.56293 29.0198C6.4461 29.7016 7.16399 30.224 7.77699 29.9018L14.4546 26.3913C21.7195 30.2107 21.2297 29.9978 21.5213 29.9978C22.037 29.9978 22.4341 29.533 22.3461 29.0196L21.0708 21.5842L26.473 16.3184C26.9686 15.8354 26.6947 14.9908 26.0093 14.8912Z" fill="white" fill-opacity="0.65"/>
<path d="M6.40217 8.30508C5.89621 8.2084 5.01848 7.57559 5.31713 5.87286C5.42612 5.25112 5.29182 5.2002 4.56045 5.03409C3.84578 4.87184 2.76584 4.62657 2.68815 3.11508C2.6745 2.85024 2.87823 2.62454 3.14301 2.61088C3.4085 2.597 3.63362 2.80096 3.64715 3.06575C3.68582 3.81762 4.04002 3.93106 4.77303 4.09752C5.43145 4.24706 6.5333 4.49731 6.26301 6.03873C6.05799 7.20727 6.57707 7.36073 6.58241 7.36172C6.84285 7.41153 7.01366 7.66307 6.96397 7.92358C6.91405 8.18438 6.66209 8.35489 6.40217 8.30508Z" fill="white" fill-opacity="0.65"/>
<path d="M3.61837 10.1405C3.96272 10.1405 4.24186 9.86132 4.24186 9.51697C4.24186 9.17263 3.96272 8.89348 3.61837 8.89348C3.27402 8.89348 2.99487 9.17263 2.99487 9.51697C2.99487 9.86132 3.27402 10.1405 3.61837 10.1405Z" fill="white" fill-opacity="0.65"/>
<path d="M24.229 22.8459C24.5733 22.8459 24.8525 22.5668 24.8525 22.2224C24.8525 21.8781 24.5733 21.5989 24.229 21.5989C23.8846 21.5989 23.6055 21.8781 23.6055 22.2224C23.6055 22.5668 23.8846 22.8459 24.229 22.8459Z" fill="white" fill-opacity="0.65"/>
<path d="M4.17361 26.7206C4.51799 26.7206 4.79716 26.4414 4.79716 26.097C4.79716 25.7526 4.51799 25.4734 4.17361 25.4734C3.82922 25.4734 3.55005 25.7526 3.55005 26.097C3.55005 26.4414 3.82922 26.7206 4.17361 26.7206Z" fill="white" fill-opacity="0.65"/>
<path d="M22.5012 8.71195C22.311 8.52709 22.3067 8.22305 22.4916 8.03291L23.1587 7.3466C23.3435 7.15647 23.6475 7.15213 23.8377 7.33699C24.0279 7.52186 24.0322 7.8259 23.8473 8.01604L23.1803 8.70235C22.995 8.89266 22.691 8.89652 22.5012 8.71195Z" fill="white" fill-opacity="0.65"/>
<path d="M9.51979 8.44805L8.63262 8.08928C8.38676 7.9899 8.26799 7.71 8.36742 7.46408C8.4668 7.21822 8.74664 7.09945 8.99262 7.19889L9.8799 7.55766C10.1258 7.65703 10.2444 7.93694 10.145 8.18285C10.0458 8.42842 9.76606 8.5476 9.51979 8.44805Z" fill="white" fill-opacity="0.65"/>
<path d="M5.13706 24.2153L4.24977 23.8565C4.00397 23.7571 3.88514 23.4772 3.98463 23.2313C4.08401 22.9854 4.36391 22.8669 4.60983 22.9661L5.49712 23.3249C5.7428 23.4243 5.86169 23.7042 5.76225 23.9501C5.66235 24.1972 5.38133 24.3142 5.13706 24.2153Z" fill="white" fill-opacity="0.65"/>
<path d="M25.3873 25.8554L24.5 25.4966C24.2542 25.3972 24.1354 25.1173 24.2349 24.8714C24.3342 24.6256 24.6141 24.5069 24.86 24.6063L25.7473 24.965C25.9931 25.0644 26.1118 25.3443 26.0125 25.5902C25.9139 25.834 25.6357 25.9555 25.3873 25.8554Z" fill="white" fill-opacity="0.65"/>
<path d="M19.685 0.396676C19.6389 0.135523 19.3896 -0.0385588 19.1285 0.00732006C18.8674 0.0534333 18.693 0.302574 18.7392 0.563726C18.8701 1.30511 18.5505 1.49502 17.8735 1.82162C17.2653 2.11494 16.2476 2.60595 16.8568 4.04754C17.32 5.144 16.8422 5.40849 16.8422 5.40849C16.7077 5.49761 16.2829 5.65552 16.4643 6.08771C16.7776 6.83472 18.7222 5.9949 17.7413 3.67382C17.4956 3.0924 17.6151 3.01265 18.2907 2.6867C18.9508 2.36818 19.9483 1.88707 19.685 0.396676Z" fill="white" fill-opacity="0.65"/>
<path d="M27.0004 7.39352C26.7829 7.24188 26.4837 7.2952 26.3319 7.51276C25.9807 8.01649 25.9124 8.6159 25.8522 9.14465C25.7485 10.0561 25.7097 10.3975 24.757 10.3364C23.7078 10.2693 22.9239 10.4942 22.4267 11.0042C21.814 11.6325 21.8357 12.4991 22.4132 12.5088C22.8934 12.5168 22.926 12.0051 22.926 12.0051C22.926 12.0051 23.0253 11.1889 24.6958 11.2949C27.3263 11.4624 26.4857 8.97139 27.1196 8.06201C27.2714 7.84451 27.2181 7.54522 27.0004 7.39352Z" fill="white" fill-opacity="0.65"/>
<path d="M12.4864 12.8409L15.2767 7.18693L15.2048 7.04126C14.8989 6.42075 14.0108 6.42023 13.7043 7.04126L10.3655 13.8063L11.4957 13.6056C11.5752 13.5907 12.1818 13.4579 12.4864 12.8409Z" fill="white" fill-opacity="0.65"/>
<path d="M8.36539 28.6996L9.50106 22.0781C9.63465 21.298 9.15992 20.7954 9.1584 20.7939L4.2384 15.9981C3.84131 15.6111 3.9234 14.9477 4.40949 14.6718L2.89977 14.8911C2.58459 14.9368 2.3228 15.1577 2.2243 15.4605C2.12592 15.7635 2.20801 16.096 2.43606 16.3183L7.83823 21.5841L6.56299 29.0197C6.44616 29.7015 7.16405 30.224 7.77705 29.9018L8.62403 29.4566C8.4166 29.2659 8.31694 28.9816 8.36539 28.6996Z" fill="white" fill-opacity="0.65"/>
</g>
<defs>
<clipPath id="clip0">
<rect width="30" height="30" fill="white"/>
</clipPath>
</defs>
</svg>
