<svg width="30" height="30" viewBox="0 0 30 30" fill="none" xmlns="http://www.w3.org/2000/svg">
<g clip-path="url(#clip0)">
<path d="M26.4258 3.57422H24.5061C24.142 2.55341 23.1757 1.81641 22.0312 1.81641C20.8868 1.81641 19.9205 2.55341 19.5564 3.57422H15.7171C15.3529 2.55341 14.3866 1.81641 13.2422 1.81641C12.0978 1.81641 11.1314 2.55341 10.7673 3.57422H10.4436C10.0795 2.55341 9.11316 1.81641 7.96875 1.81641C6.82434 1.81641 5.858 2.55341 5.49385 3.57422H3.51562V0H0V30H3.51562V26.4258H5.49385C5.858 27.4466 6.82434 28.1836 7.96875 28.1836C9.11316 28.1836 10.0795 27.4466 10.4436 26.4258H10.7673C11.1314 27.4466 12.0978 28.1836 13.2422 28.1836C14.3866 28.1836 15.3529 27.4466 15.7171 26.4258H19.5564C19.9205 27.4466 20.8868 28.1836 22.0312 28.1836C23.1757 28.1836 24.142 27.4466 24.5061 26.4258H26.4258V30H30V0H26.4258V3.57422ZM26.4258 24.668H24.5061C24.142 23.6472 23.1757 22.9102 22.0312 22.9102C20.8868 22.9102 19.9205 23.6472 19.5564 24.668H15.7171C15.3529 23.6472 14.3866 22.9102 13.2422 22.9102C12.0978 22.9102 11.1314 23.6472 10.7673 24.668H10.4436C10.0795 23.6472 9.11316 22.9102 7.96875 22.9102C6.82434 22.9102 5.858 23.6472 5.49385 24.668H3.51562V19.3945H5.49385C5.858 20.4153 6.82434 21.1523 7.96875 21.1523C9.11316 21.1523 10.0795 20.4153 10.4436 19.3945H14.2829C14.6471 20.4153 15.6134 21.1523 16.7578 21.1523C17.9022 21.1523 18.8686 20.4153 19.2327 19.3945H19.5564C19.9205 20.4153 20.8868 21.1523 22.0312 21.1523C23.1757 21.1523 24.142 20.4153 24.5061 19.3945H26.4258V24.668ZM26.4258 17.6367H24.5061C24.142 16.6159 23.1757 15.8789 22.0312 15.8789C20.8868 15.8789 19.9205 16.6159 19.5564 17.6367H19.2327C18.8686 16.6159 17.9022 15.8789 16.7578 15.8789C15.6134 15.8789 14.6471 16.6159 14.2829 17.6367H10.4436C10.0795 16.6159 9.11316 15.8789 7.96875 15.8789C6.82434 15.8789 5.858 16.6159 5.49385 17.6367H3.51562V12.3633H9.00948C9.37363 13.3841 10.34 14.1211 11.4844 14.1211C12.6288 14.1211 13.5951 13.3841 13.9593 12.3633H14.2829C14.6471 13.3841 15.6134 14.1211 16.7578 14.1211C17.9022 14.1211 18.8686 13.3841 19.2327 12.3633H19.5564C19.9205 13.3841 20.8868 14.1211 22.0312 14.1211C23.1757 14.1211 24.142 13.3841 24.5061 12.3633H26.4258V17.6367ZM26.4258 10.6055H24.5061C24.142 9.58466 23.1757 8.84766 22.0312 8.84766C20.8868 8.84766 19.9205 9.58466 19.5564 10.6055H19.2327C18.8686 9.58466 17.9022 8.84766 16.7578 8.84766C15.6134 8.84766 14.6471 9.58466 14.2829 10.6055H13.9593C13.5951 9.58466 12.6288 8.84766 11.4844 8.84766C10.34 8.84766 9.37363 9.58466 9.00948 10.6055H3.51562V5.33203H5.49385C5.858 6.35284 6.82434 7.08984 7.96875 7.08984C9.11316 7.08984 10.0795 6.35284 10.4436 5.33203H10.7673C11.1314 6.35284 12.0978 7.08984 13.2422 7.08984C14.3866 7.08984 15.3529 6.35284 15.7171 5.33203H19.5564C19.9205 6.35284 20.8868 7.08984 22.0312 7.08984C23.1757 7.08984 24.142 6.35284 24.5061 5.33203H26.4258V10.6055Z" fill="white" fill-opacity="0.65"/>
</g>
<defs>
<clipPath id="clip0">
<rect width="30" height="30" fill="white"/>
</clipPath>
</defs>
</svg>
