<svg width="30" height="28" viewBox="0 0 30 28" fill="none" xmlns="http://www.w3.org/2000/svg">
<path d="M29.8196 14.4147C29.4951 13.8377 28.7379 13.6214 28.1249 13.982L24.0144 16.3617L22.9688 16.9747V22.6718L23.9423 23.2487C23.9784 23.2487 23.9784 23.2847 24.0144 23.2847L28.0528 25.6285C28.2331 25.7727 28.4855 25.8448 28.7379 25.8448C29.423 25.8448 29.9639 25.3039 29.9639 24.6189V19.7872L29.9999 15.0276C29.9999 14.8113 29.9639 14.5949 29.8196 14.4147Z" fill="white" fill-opacity="0.65"/>
<path d="M5.80558 12.5757C9.01468 12.5757 11.6108 9.97961 11.6108 6.77052C11.6108 3.56142 9.01468 0.965297 5.80558 0.965297C2.59649 0.965297 0.000366093 3.56142 0.000366093 6.77052C-0.0356912 9.97961 2.59649 12.5757 5.80558 12.5757ZM5.80558 4.39074C7.1397 4.39074 8.18536 5.47246 8.18536 6.77052C8.18536 8.10464 7.10365 9.1503 5.80558 9.1503C4.50752 9.1503 3.42581 8.06858 3.42581 6.77052C3.38975 5.4364 4.47147 4.39074 5.80558 4.39074Z" fill="white" fill-opacity="0.65"/>
<path d="M20.5169 12.9003C19.5794 13.369 18.5337 13.6575 17.4159 13.6575C16.0458 13.6575 14.7477 13.2608 13.666 12.5397H9.55545C8.47373 13.2608 7.17567 13.6575 5.8055 13.6575C4.68772 13.6575 3.64206 13.4051 2.70457 12.9003C1.87526 13.369 1.29834 14.3065 1.29834 15.3161V24.1141C1.29834 25.7366 2.63246 27.0347 4.21898 27.0347H19.0385C20.6611 27.0347 21.9591 25.7006 21.9591 24.1141V15.3161C21.9231 14.3065 21.3462 13.369 20.5169 12.9003Z" fill="white" fill-opacity="0.65"/>
<path d="M17.4161 12.5757C20.6252 12.5757 23.2213 9.97961 23.2213 6.77052C23.2213 3.56142 20.6252 0.965297 17.4161 0.965297C14.207 0.965297 11.6108 3.56142 11.6108 6.77052C11.6108 9.97961 14.207 12.5757 17.4161 12.5757ZM17.4161 4.39074C18.7502 4.39074 19.7958 5.47246 19.7958 6.77052C19.7958 8.10464 18.7141 9.1503 17.4161 9.1503C16.118 9.1503 15.0363 8.06858 15.0363 6.77052C15.0363 5.4364 16.0819 4.39074 17.4161 4.39074Z" fill="white" fill-opacity="0.65"/>
</svg>
