<svg width="30" height="30" viewBox="0 0 30 30" fill="none" xmlns="http://www.w3.org/2000/svg">
<g clip-path="url(#clip0)">
<path d="M20.0615 15.8995C18.7115 13.7936 16.4124 12.5361 13.9112 12.5361C11.4099 12.5361 9.11083 13.7936 7.76111 15.8995L4.50825 20.9741C3.96854 21.8159 3.71952 22.7886 3.78795 23.7863C3.85639 24.7843 4.2361 25.7135 4.8859 26.4743C5.53615 27.2344 6.39538 27.754 7.37064 27.9769C8.34591 28.1999 9.34566 28.1047 10.2616 27.7021L10.323 27.6748C12.6278 26.6819 15.2616 26.6911 17.5605 27.7021C18.1535 27.9628 18.7818 28.0946 19.4158 28.0946C19.7605 28.0946 20.1072 28.0554 20.4508 27.9772C21.426 27.7545 22.2853 27.2349 22.9358 26.4746C23.5858 25.7144 23.9657 24.785 24.0344 23.7868C24.103 22.7886 23.854 21.8161 23.3143 20.9738L20.0615 15.8995Z" fill="white" fill-opacity="0.65"/>
<path d="M5.38447 15.8929C6.35218 15.5212 7.08735 14.7414 7.45448 13.697C7.80398 12.7032 7.77537 11.5812 7.37368 10.5375C6.97177 9.49447 6.24072 8.64303 5.31512 8.13972C4.34283 7.61124 3.27464 7.52518 2.30853 7.89757C0.364862 8.64487 -0.52709 11.0468 0.320459 13.2529C0.997492 15.0089 2.57655 16.1174 4.173 16.1174C4.58064 16.1174 4.98942 16.0451 5.38447 15.8929Z" fill="white" fill-opacity="0.65"/>
<path d="M11.696 11.9172C14.1258 11.9172 16.1027 9.66499 16.1027 6.89667C16.1027 4.12766 14.1258 1.875 11.696 1.875C9.26642 1.875 7.28979 4.12766 7.28979 6.89667C7.28979 9.66499 9.26642 11.9172 11.696 11.9172Z" fill="white" fill-opacity="0.65"/>
<path d="M19.3065 13.1506H19.3067C19.6805 13.2747 20.0618 13.334 20.4415 13.334C22.2135 13.334 23.9404 12.0442 24.5994 10.0621C24.9789 8.92112 24.9539 7.71468 24.5291 6.66526C24.0846 5.56663 23.2609 4.7692 22.2094 4.4197C21.1577 4.0702 20.0204 4.216 19.0067 4.82986C18.0383 5.41625 17.2962 6.36771 16.9172 7.50869C16.1173 9.91561 17.1891 12.4466 19.3065 13.1506Z" fill="white" fill-opacity="0.65"/>
<path d="M28.5863 12.5647L28.5856 12.564C26.91 11.3262 24.404 11.8627 22.9989 13.7606C21.5951 15.6594 21.8146 18.2121 23.4877 19.4508C24.0979 19.9029 24.8189 20.1189 25.5568 20.1189C26.8429 20.1189 28.181 19.4625 29.0754 18.2554C30.4789 16.3566 30.2597 13.8039 28.5863 12.5647Z" fill="white" fill-opacity="0.65"/>
</g>
<defs>
<clipPath id="clip0">
<rect width="30" height="30" fill="white"/>
</clipPath>
</defs>
</svg>
