<svg width="30" height="30" viewBox="0 0 30 30" fill="none" xmlns="http://www.w3.org/2000/svg">
<path d="M25.2461 22.3987V3.64295C25.2461 1.63424 23.6119 0 21.6031 0H4.60932C2.60055 0 0.966309 1.63424 0.966309 3.64295V7.60131H6.49445V26.357C6.49445 28.3658 8.12869 30 10.1374 30H25.3909C27.3997 30 29.0339 28.3658 29.0339 26.357V22.3987H25.2461ZM6.49445 5.8435H2.72412V3.64295C2.72412 2.6035 3.56981 1.75781 4.60932 1.75781C5.64883 1.75781 6.49445 2.6035 6.49445 3.64295V5.8435ZM12.0225 26.357C12.0225 27.3965 11.1769 28.2422 10.1374 28.2422C9.09795 28.2422 8.25227 27.3965 8.25227 26.357V3.64295C8.25227 2.95342 8.05967 2.30813 7.72551 1.75781H21.6031C22.6426 1.75781 23.4883 2.6035 23.4883 3.64295V22.3987H12.0225V26.357ZM27.2761 26.357C27.2761 27.3965 26.4304 28.2422 25.3909 28.2422H13.2537C13.5878 27.6919 13.7804 27.0466 13.7804 26.357V24.1565H27.2761V26.357Z" fill="white" fill-opacity="0.65"/>
<path d="M10.8889 4.34219H15.8702V6.10001H10.8889V4.34219Z" fill="white" fill-opacity="0.65"/>
<path d="M19.0938 4.34219H20.8516V6.10001H19.0938V4.34219Z" fill="white" fill-opacity="0.65"/>
<path d="M10.8889 7.77075H20.8515V9.52856H10.8889V7.77075Z" fill="white" fill-opacity="0.65"/>
<path d="M10.8889 11.1994H20.8515V12.9572H10.8889V11.1994Z" fill="white" fill-opacity="0.65"/>
<path d="M10.8889 14.6279H20.8515V16.3857H10.8889V14.6279Z" fill="white" fill-opacity="0.65"/>
<path d="M10.8889 18.0565H20.8515V19.8144H10.8889V18.0565Z" fill="white" fill-opacity="0.65"/>
</svg>
